<svg width="341" height="339" viewBox="0 0 341 339" fill="none" xmlns="http://www.w3.org/2000/svg">
<path d="M283.48 277.383C216.632 328.854 123.391 328.443 57 276.383L105.66 253.573C107.977 252.484 110.201 251.206 112.31 249.753C112.95 249.313 113.59 248.853 114.2 248.373C119.496 244.321 123.855 239.174 126.98 233.283C129.342 228.757 130.912 223.859 131.62 218.803C132.108 215.522 132.356 212.21 132.36 208.893C132.36 205.433 132.27 201.973 132.15 198.513C132.08 196.253 132.02 193.983 131.99 191.723C131.95 188.556 131.917 185.386 131.89 182.213L133.89 183.213L139.09 185.903L141.5 186.313L169.38 191.053L200.5 196.353L201.44 228.353L201.75 238.813L201.9 243.893V244.203L202.9 244.623L213.97 249.123L283.48 277.383Z" fill="#F2A196"/>
<path d="M201.89 244.203C198.19 244.633 191.89 243.203 188.41 241.313C175.41 234.133 168.92 228.313 162.03 223.233C153.83 217.173 132.23 197.733 132.23 197.733C132.16 195.473 132.02 193.973 131.99 191.733C131.95 188.566 131.917 185.396 131.89 182.223L133.89 183.223L139.09 185.913L141.5 186.323L169.38 191.063L200.5 196.363L201.44 228.363L201.75 238.823L201.9 243.903V244.203H201.89Z" fill="#E88870"/>
<path d="M283.48 277.383C216.632 328.854 123.391 328.443 57 276.383L105.66 253.573C107.977 252.484 110.201 251.206 112.31 249.753C112.95 249.313 113.59 248.853 114.2 248.373C137.75 265.133 169.89 275.703 197.69 263.193C204.31 260.193 210.39 255.353 213.99 249.133L283.48 277.383Z" fill="#FF2609"/>
<path d="M265.58 77.103C265.49 77.693 265.38 78.273 265.25 78.853C264.556 81.826 263.442 84.6849 261.94 87.343L261.86 87.483C261.29 88.483 260.68 89.483 260.02 90.483C258.269 93.0501 256.358 95.505 254.3 97.833L253.07 99.203C252.24 100.133 251.4 101.043 250.56 101.943C255.01 100.943 259.32 105.093 260.11 109.573C260.9 114.053 259.11 118.573 256.9 122.573C253.03 129.653 247.45 134.363 242.54 140.513C238.86 145.093 236.82 150.513 232.81 154.893L232.51 155.223C221.92 166.343 205.2 168.943 191.28 173.693C186.28 175.413 132.06 190.813 132.06 194.173C132.06 193.443 126.75 188.173 120.06 181.763C96.06 158.973 88.17 123.763 102.45 93.563C117.8 61.063 152.66 37.873 185.86 26.733C196.24 23.253 208.02 20.913 217.86 25.733C227.7 30.553 232.6 45.503 224.44 52.803C229.572 48.9199 235.956 47.065 242.37 47.593C248.294 47.9641 253.882 50.4769 258.09 54.663C261.424 58.012 263.82 62.1775 265.04 66.743C265.944 70.1203 266.128 73.65 265.58 77.103Z" fill="#845161"/>
<path d="M265.58 77.103C265.49 77.693 265.38 78.273 265.25 78.853C265.16 79.023 265.07 79.203 264.98 79.403C263.85 81.983 263.33 84.763 261.98 87.343L261.9 87.483C261.33 88.483 260.72 89.483 260.06 90.483C258.326 93.0625 256.415 95.5184 254.34 97.833L253.07 99.203C252.24 100.133 251.4 101.043 250.56 101.943C255.01 100.943 259.32 105.093 260.11 109.573C260.9 114.053 259.11 118.573 256.9 122.573C253.03 129.653 247.45 134.363 242.54 140.513C238.86 145.093 236.82 150.513 232.81 154.893C228.154 149.357 225.19 142.598 224.27 135.423C222.63 122.163 223.63 107.713 223.18 94.293C222.9 85.853 220.18 84.293 225.24 77.463C229.309 72.443 234.015 67.9753 239.24 64.173C243.32 61.483 248.57 61.063 253.44 61.753C257.684 62.3332 261.688 64.0622 265.02 66.753C265.929 70.1257 266.12 73.6518 265.58 77.103Z" fill="#69303A"/>
<circle cx="122.05" cy="154.203" r="17" fill="#F2A196"/>
<circle cx="127.44" cy="154.203" r="15.22" fill="#E88870"/>
<path d="M127.67 138.203L132.05 193.203L198.49 234.083C208.033 237.638 218.716 233.361 223.17 224.203C228.231 213.87 232.62 203.221 236.31 192.323C238.95 184.483 241.53 176.433 241.78 168.093C242.03 159.753 239.66 151.093 236.78 143.393C236.48 142.583 234.88 140.093 235.02 139.243C236.133 132.576 237.24 125.93 238.34 119.303C239.6 111.793 241.21 103.953 239.34 96.403C237.21 87.743 230.67 84.053 225.29 77.583C211.13 95.823 187.85 106.133 167.52 116.583C157.07 121.983 127.67 138.203 127.67 138.203Z" fill="#F2A196"/>
<path d="M238.14 186.703C233.83 203.623 229.06 221.053 225.51 227.313C222.85 231.983 219.14 232.883 213.27 234.313C198.544 237.683 183.082 234.415 170.98 225.373L131.89 193.893C131.29 188.003 130.89 187.103 130.6 181.183C130.46 178.503 129.6 175.823 130.24 173.183C130.416 174.57 131.009 175.871 131.94 176.913C136.67 183.333 142.19 190.583 150.05 193.223C158.25 195.973 167.58 196.403 175.5 192.523C182.39 189.143 189.14 184.733 196.33 181.953C201.112 179.978 206.272 179.087 211.44 179.343C218.78 179.843 221.92 183.153 227.29 187.523C229.05 188.963 231.02 190.463 233.29 190.523C235.85 190.473 235.98 188.353 238.14 186.703Z" fill="#845161"/>
<path d="M176.79 136.003C182.89 136.003 182.89 145.383 176.79 145.433H176.51C170.41 145.433 170.41 136.053 176.51 136.003H176.79Z" fill="#00214E"/>
<path d="M226.91 134.613C232.58 134.663 232.58 143.313 226.91 143.363H226.66C221 143.363 221 134.663 226.66 134.613H226.91Z" fill="#00214E"/>
<path d="M202.2 133.293C202.12 133.643 215.56 169.423 215.56 169.423L197.62 170.293" stroke="#00214E"/>
<path d="M159.72 126.373C168.978 124.461 178.5 124.194 187.85 125.583" stroke="#00214E"/>
<path d="M218.77 126.483C224.486 125.157 230.376 124.749 236.22 125.273" stroke="#00214E"/>
<path d="M196.59 189.203C202.21 191.147 208.302 191.259 213.99 189.523C214.6 189.333 214.34 188.363 213.73 188.523C208.216 190.213 202.308 190.104 196.86 188.213C196.25 188.003 195.99 188.963 196.59 189.213V189.203Z" fill="#F2A196"/>
</svg>
